Coordinates
version=1
nRows=24
nColumns=24
inDegrees=yes

Units are S.I. units (second, meters, Newtons, ...)
If the header above contains a line with 'inDegrees', this indicates whether rotational values are in degrees (yes) or radians (no).

endheader
time	pelvis_tilt	pelvis_list	pelvis_rotation	pelvis_tx	pelvis_ty	pelvis_tz	hip_flexion_r	hip_adduction_r	hip_rotation_r	knee_angle_r	ankle_angle_r	subtalar_angle_r	mtp_angle_r	hip_flexion_l	hip_adduction_l	hip_rotation_l	knee_angle_l	ankle_angle_l	subtalar_angle_l	mtp_angle_l	lumbar_extension	lumbar_bending	lumbar_rotation
      6.63333300	     24.35155117	      2.00857638	     -0.04673188	     46.71801266	      0.86445688	      0.11359157	    -47.16508354	      6.13945139	     -5.28825133	    -30.79311445	    -35.37960458	     -8.33939434	      0.00000000	     31.14375227	     12.07501568	     -0.78970297	    -96.69980459	      3.47928990	     12.89149120	      0.00000000	    -34.46884838	      0.54403722	      7.98374409
      6.65000000	     23.93268494	      3.29638969	      3.43648538	     46.85224787	      0.87006152	      0.10848120	    -49.07096028	      6.89081134	     -6.14963721	    -34.35052819	    -45.48549385	     -5.87921445	      0.00000000	     32.89552587	     14.48414192	      3.08035702	    -80.85207317	     -1.76323887	      9.26013084	      0.00000000	    -34.02725205	      0.22289594	      8.87170122
      6.66666700	     23.71841083	      3.32899207	      4.72695835	     46.98366752	      0.87395870	      0.10642522	    -48.94988172	      7.20214789	     -7.70661088	    -43.86973649	    -48.23823293	      1.95319115	      0.00000000	     30.31734685	     15.54253831	      5.66527714	    -63.49698725	     -3.47050052	     11.49584567	      0.00000000	    -34.49994664	     -0.10262875	      8.67944032
      6.68333300	     22.82890900	      2.87011097	      5.19396541	     47.11390893	      0.87519490	      0.10392990	    -46.42288326	      7.07577403	     -9.30997896	    -57.47754785	    -47.79186836	      9.98012737	      0.00000000	     25.45929603	     16.31429541	      8.21827440	    -44.25309036	     -3.01368756	     13.46208694	      0.00000000	    -34.41712174	     -0.41541178	      7.76078331
      6.70000000	     22.38791459	      2.58865743	      5.60129355	     47.24518042	      0.87475342	      0.10199129	    -43.74425969	      6.41823942	    -10.96428193	    -70.57625133	    -47.36004303	     15.52126041	      0.00000000	     19.25806476	     16.55602052	      9.32604961	    -27.48566063	     -7.20171567	     11.48686980	      0.00000000	    -34.61884131	     -0.86534571	      6.53292256
      6.71666700	     23.30948936	      2.34759096	      5.95525425	     47.37874007	      0.87297469	      0.10060174	    -42.05028472	      5.00961946	    -13.33438340	    -82.10709246	    -46.49009916	     16.26817622	      0.00000000	     12.04971927	     15.42348934	      5.72296470	    -15.74623923	    -13.96408981	     12.63442109	      0.00000000	    -35.32100515	     -1.17051219	      6.15386643
      6.73333300	     25.09958401	      2.67122232	      5.44062987	     47.51418730	      0.86945960	      0.09747100	    -40.63170413	      1.81620348	    -15.57524785	    -93.83587723	    -44.16787414	     14.90231374	      0.00000000	      3.60809312	     14.91754350	     -1.84109935	     -7.53333171	    -19.24033544	     17.26934208	      0.00000000	    -36.55191129	     -2.00127140	      6.25113978
      6.75000000	     26.85243070	      2.84490226	      5.47773885	     47.64930785	      0.86471060	      0.09295635	    -38.47652197	     -0.38902674	    -17.49970766	   -103.80170754	    -42.07714476	     11.15684502	      0.00000000	     -4.33065596	     15.28617888	     -5.08451358	     -4.92997541	    -16.52247847	     20.35088730	      0.00000000	    -37.55328158	     -2.35081061	      5.04731754
      6.76666700	     28.63586559	      2.51425456	      5.70788761	     47.78345521	      0.85656442	      0.08993171	    -35.27850180	     -1.08116815	    -18.63204254	   -112.31114816	    -39.39364768	      8.21218377	      0.00000000	    -11.45806700	     15.67793467	     -2.60115007	    -10.45134057	     -1.34131653	     14.72320846	      0.00000000	    -38.62185219	     -2.28226299	      3.98798028
      6.78333300	     29.88800087	      1.79389137	      6.59107121	     47.91618349	      0.84591206	      0.08621632	    -30.16568009	     -0.24242303	    -19.70659659	   -119.53438500	    -35.55652059	      6.21826553	      0.00000000	    -17.47883906	     15.90347488	      3.58087020	    -20.95655341	     12.83292996	      5.19253465	      0.00000000	    -39.27165982	     -1.55477019	      1.65456991
      6.80000000	     30.57325240	      0.12515315	      6.10868644	     48.05120890	      0.84143010	      0.08536013	    -23.30160107	      1.41320523	    -18.70248619	   -123.89676459	    -30.71483128	      5.86122645	      0.00000000	    -23.45649518	     14.48594014	      5.43720710	    -28.14795018	     18.43645064	      2.92451196	      0.00000000	    -38.91169568	     -0.64489026	      0.66296568
      6.81666700	     32.16059818	     -1.87705671	      4.55845968	     48.18781537	      0.84938108	      0.08653930	    -16.32226039	      4.61357141	    -14.76603049	   -123.81488809	    -25.31763598	      5.81801978	      0.00000000	    -31.27243536	     11.16564839	      1.41794251	    -29.44222276	     13.44002692	      7.72878671	      0.00000000	    -39.51564725	      0.34793240	     -0.44022332
      6.83333300	     32.88166019	     -4.32677711	      2.18985436	     48.32540530	      0.86349131	      0.08961815	     -7.74564926	      9.27398983	     -9.52826689	   -120.15004924	    -23.62275456	      3.43307830	      0.00000000	    -38.73077965	      6.95155977	     -6.99122426	    -28.63179568	      3.86691347	     22.62771390	      0.00000000	    -39.27766496	      1.30445789	     -1.62118983
      6.85000000	     32.12437749	     -5.62240487	     -0.29278609	     48.46229371	      0.87372575	      0.09120985	      1.11184274	     13.09737603	     -5.13784695	   -114.51028813	    -25.21690192	     -0.85362695	      0.00000000	    -44.09654983	      5.09393192	    -12.09543171	    -28.03942323	     -8.33220545	     36.49195094	      0.00000000	    -37.77840320	      1.51926462	     -3.05773733
      6.86666700	     31.96094352	     -6.59939823	     -2.48994546	     48.59893989	      0.88101471	      0.09046522	      7.73418361	     16.72227621	     -1.60102772	   -106.97315954	    -24.62345614	     -7.71924718	      0.00000000	    -50.21249553	      4.29366857	    -14.86553667	    -24.75625278	    -23.95665267	     32.96169374	      0.00000000	    -36.78843838	      2.03419157	     -4.98089980
      6.88333300	     31.70802386	     -7.41215301	     -4.64440418	     48.73427396	      0.88800181	      0.08872982	     12.79935867	     19.95278640	      2.12140427	    -96.80515962	    -25.97897907	    -16.19483896	      0.00000000	    -55.87092073	      4.46352827	    -14.53440605	    -21.08232463	    -38.06949106	     28.23086212	      0.00000000	    -35.94985211	      2.66306679	     -6.89352179
      6.90000000	     31.10634792	     -7.62896133	     -6.28578522	     48.86725267	      0.89201402	      0.08666250	     15.85936027	     21.57194034	      5.44480150	    -84.94152413	    -29.55179129	    -21.23983118	      0.00000000	    -59.07029616	      5.02368987	    -12.80877537	    -21.68474304	    -47.42988648	     27.34892994	      0.00000000	    -35.08193803	      2.86104381	     -8.34577324
      6.91666700	     30.82589555	     -7.36665711	     -7.18535335	     48.99510828	      0.89489968	      0.08316723	     16.36686274	     20.82833355	      7.28674004	    -71.08123058	    -29.46906303	    -18.57619047	      0.00000000	    -59.26719736	      6.29432891	     -9.59652717	    -29.46858661	    -49.54012582	     29.61316010	      0.00000000	    -35.28714436	      3.01452505	     -8.26770585
      6.93333300	     30.44901982	     -7.31916112	     -7.66722116	     49.12041977	      0.89498316	      0.08028007	     14.98633843	     19.52915245	      7.68324432	    -55.38016434	    -27.30569588	    -10.60900636	      0.00000000	    -57.48299506	      7.30363330	     -7.93508409	    -41.50529509	    -48.75774847	     32.72266328	      0.00000000	    -35.82063195	      3.35865176	     -7.52775605
      6.95000000	     30.38199686	     -7.21633862	     -7.93525871	     49.24605830	      0.89462563	      0.07714924	     11.30344719	     18.46566300	      7.80238664	    -40.62621993	    -28.29498274	     -4.42686445	      0.00000000	    -55.45855277	      7.54719389	     -8.13971810	    -52.96498592	    -47.90884603	     34.63618327	      0.00000000	    -36.76097319	      3.64887921	     -6.57207732
      6.96666700	     30.14286712	     -7.32724906	     -8.56002231	     49.37537865	      0.89404058	      0.07427426	      4.69543692	     18.84176834	     11.55567569	    -26.95080718	    -32.86466310	     -5.11895752	      0.00000000	    -53.43062573	      6.68292788	    -10.95883577	    -62.47713774	    -47.05590813	     34.29878689	      0.00000000	    -37.17039626	      4.11158843	     -6.00341475
      6.98333300	     29.86428654	     -6.80683944	     -9.24537408	     49.50623004	      0.89191329	      0.06942769	     -3.69339722	     18.19177679	     17.14979058	    -14.09636112	    -36.27562241	     -8.96776217	      0.00000000	    -50.54646353	      5.91102245	    -13.95005312	    -71.95003919	    -45.29773991	     32.21775968	      0.00000000	    -37.39399739	      4.12941917	     -5.54900276
      7.00000000	     29.72474828	     -5.55452437	     -9.52917306	     49.63599211	      0.88782226	      0.06507744	    -10.59112620	     16.40781937	     17.31523280	     -4.74103200	    -35.51616708	    -10.03851624	      0.00000000	    -46.66544034	      5.31979161	    -15.87256100	    -81.42365359	    -42.46023014	     27.88439736	      0.00000000	    -37.39195970	      3.64508898	     -5.43266585
      7.01666700	     30.81386311	     -4.16542082	     -9.25948669	     49.76566863	      0.88348173	      0.06135340	    -16.22100738	     15.48360897	     14.95492142	     -0.73769317	    -29.05172922	     -7.96887785	      0.00000000	    -43.14569981	      4.58332294	    -16.99704385	    -90.59212182	    -37.75154353	     22.93626348	      0.00000000	    -38.23861559	      2.99543878	     -5.29909853
